<?xml version="1.0" standalone="no"?>
<!DOCTYPE svg PUBLIC "-//W3C//DTD SVG 20010904//EN"
 "http://www.w3.org/TR/2001/REC-SVG-20010904/DTD/svg10.dtd">
<svg version="1.0" xmlns="http://www.w3.org/2000/svg"
 width="512.000000pt" height="512.000000pt" viewBox="0 0 512.000000 512.000000"
 preserveAspectRatio="xMidYMid meet">

<g transform="translate(0.000000,512.000000) scale(0.100000,-0.100000)"
fill="#000000" stroke="none">
<path d="M4060 5103 c-35 -12 -77 -48 -183 -152 l-138 -136 539 -538 538 -538
135 138 c145 147 169 187 169 277 0 89 -24 117 -441 533 -295 294 -405 397
-439 412 -53 24 -118 25 -180 4z"/>
<path d="M2117 3202 l-1247 -1247 543 -543 542 -542 1250 1250 1250 1250 -540
540 c-297 297 -542 540 -545 540 -3 0 -566 -561 -1253 -1248z"/>
<path d="M506 1570 c-27 -79 -504 -1565 -503 -1567 3 -2 1566 503 1572 508 2
3 -236 245 -530 539 -351 350 -536 529 -539 520z"/>
</g>
</svg>
