<?xml version="1.0" standalone="no"?>
<!DOCTYPE svg PUBLIC "-//W3C//DTD SVG 20010904//EN"
 "http://www.w3.org/TR/2001/REC-SVG-20010904/DTD/svg10.dtd">
<svg version="1.0" xmlns="http://www.w3.org/2000/svg"
 width="512.000000pt" height="512.000000pt" viewBox="0 0 512.000000 512.000000"
 preserveAspectRatio="xMidYMid meet">

<g transform="translate(0.000000,512.000000) scale(0.100000,-0.100000)"
fill="#000000" stroke="none">
<path d="M1961 4784 c-83 -22 -165 -71 -224 -133 -99 -104 -137 -210 -137
-383 l0 -108 -343 0 c-378 0 -410 -4 -519 -62 -69 -36 -163 -133 -197 -202
-116 -236 -25 -515 209 -640 l65 -35 141 -1268 c156 -1395 145 -1329 230
-1443 49 -64 145 -134 229 -166 48 -18 99 -19 1115 -22 939 -2 1073 -1 1136
13 158 35 290 154 343 311 15 46 53 359 156 1285 74 673 138 1240 141 1259 4
31 11 38 67 64 84 40 178 134 218 221 129 274 -22 593 -316 670 -48 12 -127
15 -407 15 l-348 0 0 108 c0 173 -38 279 -137 383 -61 64 -141 111 -228 134
-85 22 -1112 21 -1194 -1z m1165 -330 c60 -44 69 -67 72 -185 l4 -109 -641 0
-641 0 0 94 c0 102 9 137 43 175 47 51 44 51 609 48 514 -2 527 -2 554 -23z
m1120 -640 c53 -39 69 -71 69 -134 0 -63 -16 -95 -69 -134 -27 -21 -29 -21
-1664 -24 -1129 -2 -1648 0 -1674 8 -101 29 -140 168 -71 251 53 62 -62 59
1735 56 1646 -2 1647 -2 1674 -23z m-270 -656 c-3 -24 -64 -574 -136 -1222
-81 -730 -136 -1189 -145 -1205 -18 -35 -54 -67 -88 -80 -19 -8 -351 -11
-1051 -11 l-1023 0 -43 23 c-27 14 -51 36 -62 59 -15 28 -45 273 -153 1253
-74 670 -135 1219 -135 1221 0 2 640 4 1421 4 l1421 0 -6 -42z"/>
<path d="M2015 2866 c-41 -18 -83 -69 -90 -109 -3 -18 -5 -370 -3 -784 3 -741
3 -752 24 -779 39 -53 71 -69 134 -69 63 0 95 16 134 69 21 27 21 35 21 806 0
771 0 779 -21 806 -11 15 -32 37 -46 47 -33 25 -113 32 -153 13z"/>
<path d="M2975 2866 c-41 -18 -83 -69 -90 -109 -3 -18 -5 -370 -3 -784 3 -741
3 -752 24 -779 39 -53 71 -69 134 -69 63 0 95 16 134 69 21 27 21 35 21 806 0
771 0 779 -21 806 -11 15 -32 37 -46 47 -33 25 -113 32 -153 13z"/>
</g>
</svg>
